<svg width="136" height="115" viewBox="0 0 136 115" fill="none" xmlns="http://www.w3.org/2000/svg">
<path d="M98 34.063H106V35.063H98V48.063H87V60.063H74V67.063H73V60.063H61V72.063H60V60.063H48V72.063H47V60.063H36V63.063H35V60.063H24V63.063H23V48.063H13V54.063H12V35.063H6V34.063H12V22.063H13V34.063H23V22.063H24V34.063H35V22.063H36V34.063H47V22.063H48V34.063H60V22.063H61V34.063H73V22.063H74V34.063H86V22.063H87V34.063H97V21.063H98V34.063ZM24 59.063H35V48.063H24V59.063ZM36 59.063H47V48.063H36V59.063ZM48 59.063H60V48.063H48V59.063ZM61 59.063H73V48.063H61V59.063ZM74 59.063H86V48.063H74V59.063ZM13 47.063H23V35.063H13V47.063ZM24 47.063H35V35.063H24V47.063ZM36 47.063H47V35.063H36V47.063ZM48 47.063H60V35.063H48V47.063ZM61 47.063H73V35.063H61V47.063ZM74 47.063H86V35.063H74V47.063ZM87 47.063H97V35.063H87V47.063Z" fill="url(#paint0_linear_325_144)"/>
<line x1="5" y1="-5" x2="28.1635" y2="-5" transform="matrix(0.979809 0.199938 -0.200364 0.979722 102 9.06299)" stroke="#FF7518" stroke-width="10" stroke-linecap="round"/>
<line x1="106.063" y1="75.0009" x2="106.938" y2="5.0001" stroke="#FF7518" stroke-width="10" stroke-linecap="round"/>
<line x1="11.0334" y1="75.0966" x2="106.034" y2="75.7339" stroke="#FF7518" stroke-width="10" stroke-linecap="round"/>
<line x1="11.0334" y1="90.0966" x2="106.034" y2="90.7339" stroke="#FF7518" stroke-width="10" stroke-linecap="round"/>
<foreignObject x="-4" y="16.063" width="120" height="64"><div xmlns="http://www.w3.org/1999/xhtml" style="backdrop-filter:blur(2px);clip-path:url(#bgblur_0_325_144_clip_path);height:100%;width:100%"></div></foreignObject><g data-figma-bg-blur-radius="4">
<mask id="path-6-inside-1_325_144" fill="white">
<path d="M112 20.063C112 50.9909 86.9279 76.063 56 76.063C25.0721 76.063 0 50.9909 0 20.063H112Z"/>
</mask>
<path d="M112 20.063C112 50.9909 86.9279 76.063 56 76.063C25.0721 76.063 0 50.9909 0 20.063H112Z" fill="#A52A2A" fill-opacity="0.6"/>
<path d="M112 20.063H113V19.063H112V20.063ZM0 20.063V19.063H-1V20.063H0ZM112 20.063H111C111 50.4387 86.3757 75.063 56 75.063V76.063V77.063C87.4802 77.063 113 51.5432 113 20.063H112ZM56 76.063V75.063C25.6243 75.063 1 50.4387 1 20.063H0H-1C-1 51.5432 24.5198 77.063 56 77.063V76.063ZM0 20.063V21.063H112V20.063V19.063H0V20.063Z" fill="url(#paint1_linear_325_144)" mask="url(#path-6-inside-1_325_144)"/>
</g>
<g clip-path="url(#paint2_angular_325_144_clip_path)" data-figma-skip-parse="true"><g transform="matrix(0 0.0115 -0.0115 0 78.5 100.563)"><foreignObject x="-1086.96" y="-1086.96" width="2173.91" height="2173.91"><div xmlns="http://www.w3.org/1999/xhtml" style="background:conic-gradient(from 90deg,rgba(75, 0, 130, 1) 0deg,rgba(165, 42, 42, 1) 360deg);height:100%;width:100%;opacity:1"></div></foreignObject></g></g><circle cx="78.5" cy="100.563" r="11.5" data-figma-gradient-fill="{&#34;type&#34;:&#34;GRADIENT_ANGULAR&#34;,&#34;stops&#34;:[{&#34;color&#34;:{&#34;r&#34;:0.29411765933036804,&#34;g&#34;:0.0,&#34;b&#34;:0.50980395078659058,&#34;a&#34;:1.0},&#34;position&#34;:0.0},{&#34;color&#34;:{&#34;r&#34;:0.64705884456634521,&#34;g&#34;:0.16470588743686676,&#34;b&#34;:0.16470588743686676,&#34;a&#34;:1.0},&#34;position&#34;:1.0}],&#34;stopsVar&#34;:[{&#34;color&#34;:{&#34;r&#34;:0.29411765933036804,&#34;g&#34;:0.0,&#34;b&#34;:0.50980395078659058,&#34;a&#34;:1.0},&#34;position&#34;:0.0},{&#34;color&#34;:{&#34;r&#34;:0.64705884456634521,&#34;g&#34;:0.16470588743686676,&#34;b&#34;:0.16470588743686676,&#34;a&#34;:1.0},&#34;position&#34;:1.0}],&#34;transform&#34;:{&#34;m00&#34;:7.0417190450226905e-15,&#34;m01&#34;:-23.0,&#34;m02&#34;:90.0,&#34;m10&#34;:23.0,&#34;m11&#34;:7.0417190450226905e-15,&#34;m12&#34;:89.062988281250},&#34;opacity&#34;:1.0,&#34;blendMode&#34;:&#34;NORMAL&#34;,&#34;visible&#34;:true}"/>
<g clip-path="url(#paint3_angular_325_144_clip_path)" data-figma-skip-parse="true"><g transform="matrix(0 0.0115 -0.0115 0 36.5 100.563)"><foreignObject x="-1086.96" y="-1086.96" width="2173.91" height="2173.91"><div xmlns="http://www.w3.org/1999/xhtml" style="background:conic-gradient(from 90deg,rgba(75, 0, 130, 1) 0deg,rgba(165, 42, 42, 1) 360deg);height:100%;width:100%;opacity:1"></div></foreignObject></g></g><circle cx="36.5" cy="100.563" r="11.5" data-figma-gradient-fill="{&#34;type&#34;:&#34;GRADIENT_ANGULAR&#34;,&#34;stops&#34;:[{&#34;color&#34;:{&#34;r&#34;:0.29411765933036804,&#34;g&#34;:0.0,&#34;b&#34;:0.50980395078659058,&#34;a&#34;:1.0},&#34;position&#34;:0.0},{&#34;color&#34;:{&#34;r&#34;:0.64705884456634521,&#34;g&#34;:0.16470588743686676,&#34;b&#34;:0.16470588743686676,&#34;a&#34;:1.0},&#34;position&#34;:1.0}],&#34;stopsVar&#34;:[{&#34;color&#34;:{&#34;r&#34;:0.29411765933036804,&#34;g&#34;:0.0,&#34;b&#34;:0.50980395078659058,&#34;a&#34;:1.0},&#34;position&#34;:0.0},{&#34;color&#34;:{&#34;r&#34;:0.64705884456634521,&#34;g&#34;:0.16470588743686676,&#34;b&#34;:0.16470588743686676,&#34;a&#34;:1.0},&#34;position&#34;:1.0}],&#34;transform&#34;:{&#34;m00&#34;:7.0417190450226905e-15,&#34;m01&#34;:-23.0,&#34;m02&#34;:48.0,&#34;m10&#34;:23.0,&#34;m11&#34;:7.0417190450226905e-15,&#34;m12&#34;:89.062988281250},&#34;opacity&#34;:1.0,&#34;blendMode&#34;:&#34;NORMAL&#34;,&#34;visible&#34;:true}"/>
<defs>
<clipPath id="bgblur_0_325_144_clip_path" transform="translate(4 -16.063)"><path d="M112 20.063C112 50.9909 86.9279 76.063 56 76.063C25.0721 76.063 0 50.9909 0 20.063H112Z"/>
</clipPath><clipPath id="paint2_angular_325_144_clip_path"><circle cx="78.5" cy="100.563" r="11.5"/></clipPath><clipPath id="paint3_angular_325_144_clip_path"><circle cx="36.5" cy="100.563" r="11.5"/></clipPath><linearGradient id="paint0_linear_325_144" x1="106" y1="46.563" x2="6" y2="46.563" gradientUnits="userSpaceOnUse">
<stop stop-color="#E1B866"/>
<stop offset="1" stop-color="#145032"/>
</linearGradient>
<linearGradient id="paint1_linear_325_144" x1="56" y1="20.063" x2="56" y2="76.063" gradientUnits="userSpaceOnUse">
<stop stop-color="#E1B866"/>
<stop offset="1" stop-color="#FF7511" stop-opacity="0.533333"/>
</linearGradient>
</defs>
</svg>
