<svg width="978" height="539" viewBox="0 0 978 539" fill="none" xmlns="http://www.w3.org/2000/svg">
<line x1="914.102" y1="512" x2="914.102" y2="452" stroke="url(#paint0_linear_326_237)" stroke-width="10" stroke-linecap="round"/>
<path d="M977.516 411.229V411.229C959.655 401.714 937.463 408.479 927.948 426.339L911.102 457.959V457.959C928.962 467.474 951.155 460.709 960.67 442.849L977.516 411.229Z" fill="#145032"/>
<path d="M839.102 406.123L844.855 403.789C870.445 393.412 899.603 405.745 909.98 431.335L919.592 455.04L913.839 457.373C888.249 467.75 859.091 455.418 848.714 429.828L839.102 406.123Z" fill="#145032"/>
<line x1="720.102" y1="512" x2="720.102" y2="399" stroke="url(#paint1_linear_326_237)" stroke-width="10" stroke-linecap="round"/>
<path d="M795.102 369L790.957 366.792C766.586 353.808 736.303 363.039 723.319 387.411L716.102 400.959L720.246 403.167C744.617 416.151 774.9 406.92 787.884 382.548L795.102 369Z" fill="#145032"/>
<path d="M645.102 375L657.777 369.86C683.368 359.483 712.525 371.815 722.902 397.406L725.592 404.04L712.917 409.18C687.326 419.558 658.169 407.225 647.792 381.635L645.102 375Z" fill="#145032"/>
<line x1="526.102" y1="511.718" x2="526.102" y2="347.718" stroke="url(#paint2_linear_326_237)" stroke-width="10" stroke-linecap="round"/>
<path d="M610.102 310L603.343 306.4C578.972 293.416 548.69 302.647 535.706 327.018L523.102 350.677L529.86 354.277C554.231 367.261 584.513 358.03 597.497 333.658L610.102 310Z" fill="#145032"/>
<path d="M526.305 325.825L528.489 323.481C543.002 307.904 542.139 283.513 526.563 269V269L524.379 271.344C509.866 286.921 510.729 311.312 526.305 325.825V325.825Z" fill="#145032"/>
<path d="M531.102 386.099L536.018 386.925C546.566 388.698 556.554 381.584 558.326 371.036V371.036L553.41 370.21C542.862 368.437 532.874 375.551 531.102 386.099V386.099Z" fill="#145032"/>
<path d="M522.328 390.099L517.412 390.925C506.864 392.698 496.876 385.584 495.103 375.036V375.036L500.02 374.21C510.568 372.437 520.555 379.551 522.328 390.099V390.099Z" fill="#145032"/>
<path d="M443.102 302L451.413 298.63C477.003 288.252 506.161 300.585 516.538 326.175L526.592 350.97L518.281 354.34C492.69 364.717 463.533 352.385 453.156 326.794L443.102 302Z" fill="#145032"/>
<line x1="315.102" y1="525.718" x2="315.102" y2="273.718" stroke="url(#paint3_linear_326_237)" stroke-width="10" stroke-linecap="round"/>
<path d="M402.102 249.11L395.343 245.509C370.972 232.525 340.69 241.757 327.706 266.128L315.102 289.786L321.86 293.387C346.231 306.371 376.513 297.14 389.497 272.768L402.102 249.11Z" fill="#145032"/>
<path d="M315.266 277.942L334.238 257.579C353.063 237.375 351.945 205.737 331.741 186.913L315.748 172.012L296.775 192.375C277.951 212.579 279.069 244.217 299.273 263.041L315.266 277.942Z" fill="#145032"/>
<path d="M320.102 378.424L331.537 380.346C356.072 384.469 379.304 367.923 383.427 343.388V343.388L371.992 341.466C347.457 337.343 324.225 353.889 320.102 378.424V378.424Z" fill="#145032"/>
<path d="M311.332 370.269L298.649 372.4C271.439 376.973 245.673 358.622 241.1 331.412V331.412L253.783 329.28C280.993 324.707 306.759 343.058 311.332 370.269V370.269Z" fill="#145032"/>
<path d="M232.102 262.16L240.413 258.789C266.003 248.412 295.161 260.745 305.538 286.335L315.592 311.13L307.281 314.5C281.69 324.877 252.533 312.545 242.156 286.954L232.102 262.16Z" fill="#145032"/>
<line x1="101.069" y1="525.739" x2="98.1344" y2="78.0327" stroke="#145032" stroke-width="10" stroke-linecap="round"/>
<path d="M110.102 77.4241L135.334 81.6647C152.249 84.5075 168.266 73.0997 171.108 56.1847V56.1847C172.389 48.565 167.25 41.3499 159.63 40.0693L156.079 39.4724C134.81 35.8978 114.67 50.2422 111.095 71.5114L110.102 77.4241Z" fill="url(#paint4_radial_326_237)"/>
<path d="M108.785 72.3569L125.112 52.6568C136.056 39.4504 134.223 19.8719 121.017 8.92711V8.92711C115.067 3.9968 106.248 4.8227 101.318 10.7718L99.0196 13.5447C85.2574 30.1507 87.5628 54.7689 104.169 68.5311L108.785 72.3569Z" fill="url(#paint5_radial_326_237)"/>
<path d="M109.062 73.375L97.3634 50.6203C89.5206 35.3661 70.7968 29.358 55.5427 37.2008V37.2008C48.6711 40.7337 45.9646 49.1682 49.4976 56.0398L51.1443 59.2426C61.0059 78.4234 84.5495 85.9781 103.73 76.1165L109.062 73.375Z" fill="url(#paint6_radial_326_237)"/>
<path d="M104.688 76L79.1268 77.1391C61.9916 77.9028 48.7198 92.4127 49.4835 109.548V109.548C49.8275 117.267 56.3637 123.245 64.0826 122.901L67.6804 122.741C89.2265 121.781 105.915 103.536 104.954 81.9897L104.688 76Z" fill="url(#paint7_radial_326_237)"/>
<path d="M106.824 78L98.3678 102.148C92.6988 118.337 101.226 136.055 117.415 141.724V141.724C124.707 144.278 132.689 140.437 135.243 133.144L136.433 129.745C143.561 109.39 132.838 87.1099 112.483 79.9816L106.824 78Z" fill="url(#paint8_radial_326_237)"/>
<path d="M112.102 78.4673L123.159 101.541C130.571 117.009 149.119 123.539 164.587 116.126V116.126C171.555 112.787 174.497 104.432 171.158 97.4642L169.601 94.2166C160.281 74.767 136.958 66.5558 117.508 75.8763L112.102 78.4673Z" fill="url(#paint9_radial_326_237)"/>
<circle cx="107.496" cy="76.5" r="10.5" fill="#E1B866"/>
<path d="M171.516 140L122.964 150.028C95.9209 155.614 78.526 182.065 84.1117 209.108L95.4809 264.153L144.032 254.125C171.076 248.539 188.471 222.088 182.885 195.045L171.516 140Z" fill="#145032"/>
<path d="M104.34 381.639L113.587 332.933C118.738 305.803 100.92 279.635 73.7907 274.484L18.5705 264L9.32335 312.706C4.17261 339.836 21.99 366.004 49.1196 371.155L104.34 381.639Z" fill="#145032"/>
<defs>
<linearGradient id="paint0_linear_326_237" x1="919.602" y1="447" x2="919.602" y2="517" gradientUnits="userSpaceOnUse">
<stop stop-color="#FF7518" stop-opacity="0.317647"/>
<stop offset="1" stop-color="#493C33"/>
</linearGradient>
<linearGradient id="paint1_linear_326_237" x1="725.602" y1="394" x2="725.602" y2="517" gradientUnits="userSpaceOnUse">
<stop stop-color="#FF7518" stop-opacity="0.317647"/>
<stop offset="1" stop-color="#02251A"/>
</linearGradient>
<linearGradient id="paint2_linear_326_237" x1="531.602" y1="342.718" x2="531.602" y2="516.718" gradientUnits="userSpaceOnUse">
<stop stop-color="#FF7518" stop-opacity="0.317647"/>
<stop offset="1" stop-color="#02251A"/>
</linearGradient>
<linearGradient id="paint3_linear_326_237" x1="320.602" y1="268.718" x2="320.602" y2="530.718" gradientUnits="userSpaceOnUse">
<stop stop-color="#FF7518" stop-opacity="0.317647"/>
<stop offset="1" stop-color="#02251A"/>
</linearGradient>
<radialGradient id="paint4_radial_326_237" cx="0" cy="0" r="1" gradientUnits="userSpaceOnUse" gradientTransform="translate(141.764 59.906) rotate(-80.4598) scale(22.5235 28.3215)">
<stop stop-color="#FF7518"/>
<stop offset="1" stop-color="#A52A2A"/>
</radialGradient>
<radialGradient id="paint5_radial_326_237" cx="0" cy="0" r="1" gradientUnits="userSpaceOnUse" gradientTransform="translate(109.515 36.1785) rotate(-140.35) scale(22.5235 28.3215)">
<stop stop-color="#FF7518"/>
<stop offset="1" stop-color="#A52A2A"/>
</radialGradient>
<radialGradient id="paint6_radial_326_237" cx="0" cy="0" r="1" gradientUnits="userSpaceOnUse" gradientTransform="translate(76.0816 58.4864) rotate(152.79) scale(22.5235 28.3215)">
<stop stop-color="#FF7518"/>
<stop offset="1" stop-color="#A52A2A"/>
</radialGradient>
<radialGradient id="paint7_radial_326_237" cx="0" cy="0" r="1" gradientUnits="userSpaceOnUse" gradientTransform="translate(77.3969 99.7621) rotate(87.4482) scale(22.5235 28.3215)">
<stop stop-color="#FF7518"/>
<stop offset="1" stop-color="#A52A2A"/>
</radialGradient>
<radialGradient id="paint8_radial_326_237" cx="0" cy="0" r="1" gradientUnits="userSpaceOnUse" gradientTransform="translate(118.721 112.174) rotate(19.2997) scale(22.5235 28.3215)">
<stop stop-color="#FF7518"/>
<stop offset="1" stop-color="#A52A2A"/>
</radialGradient>
<radialGradient id="paint9_radial_326_237" cx="0" cy="0" r="1" gradientUnits="userSpaceOnUse" gradientTransform="translate(144.653 94.2739) rotate(-25.6044) scale(22.5235 28.3215)">
<stop stop-color="#FF7518"/>
<stop offset="1" stop-color="#A52A2A"/>
</radialGradient>
</defs>
</svg>
