<svg width="82" height="121" viewBox="0 0 82 121" fill="none" xmlns="http://www.w3.org/2000/svg">
<path d="M51.0895 21C71.1276 21.0002 85.5335 40.2689 79.8639 59.4883L67.9068 100.019C64.2368 112.459 52.8142 121 39.8434 121C26.5193 121 14.8778 111.998 11.525 99.1025L0.981058 58.5488C-3.95932 39.5472 10.3818 21.0001 30.0152 21H51.0895ZM36.0152 27C16.3818 27.0001 2.04069 45.5472 6.98106 64.5488L15.2906 96.5117C18.2747 107.988 28.6364 116 40.4947 116C52.0386 116 62.2049 108.399 65.4713 97.3271L74.8639 65.4883C80.5335 46.2689 66.1276 27.0002 46.0895 27H36.0152ZM19.6686 55.5791C21.0351 55.3817 22.3032 56.3298 22.5006 57.6963L27.9342 95.3174C28.1314 96.6837 27.1842 97.9509 25.818 98.1484C24.4515 98.3458 23.1835 97.3986 22.9859 96.0322L17.5514 58.4111C17.354 57.0447 18.3021 55.7765 19.6686 55.5791ZM40.2174 55.0059C41.5981 55.0059 42.7173 56.1252 42.7174 57.5059V95.5176C42.7171 96.8981 41.5979 98.0176 40.2174 98.0176C38.8369 98.0175 37.7176 96.898 37.7174 95.5176V57.5059C37.7174 56.1252 38.8368 55.0059 40.2174 55.0059ZM61.6754 54.8604C63.0471 55.0172 64.0323 56.2562 63.8756 57.6279L59.5602 95.3936C59.4034 96.7652 58.1642 97.7503 56.7926 97.5938C55.4208 97.437 54.4357 96.1979 54.5924 94.8262L58.9078 57.0605C59.0646 55.6888 60.3036 54.7036 61.6754 54.8604ZM41.2184 0C45.6363 0.000421581 49.2184 3.58198 49.2184 8C49.2184 12.418 45.6363 15.9996 41.2184 16C36.8001 16 33.2184 12.4183 33.2184 8C33.2184 3.58172 36.8001 0 41.2184 0Z" fill="url(#paint0_linear_326_190)"/>
<line x1="9.21875" y1="50" x2="72.2188" y2="50" stroke="#FF7518" stroke-width="2" stroke-linecap="round"/>
<defs>
<linearGradient id="paint0_linear_326_190" x1="40.5544" y1="0" x2="40.5544" y2="121" gradientUnits="userSpaceOnUse">
<stop stop-color="#A52A2A"/>
<stop offset="1" stop-color="#FF7518"/>
</linearGradient>
</defs>
</svg>
