<svg width="120" height="136" viewBox="0 0 120 136" fill="none" xmlns="http://www.w3.org/2000/svg">
<path d="M11.4841 114.369C11.1229 114.925 11.0011 115.598 11.1516 116.244C11.3019 116.89 11.7122 117.456 12.286 117.813C12.8599 118.17 13.5485 118.288 14.1941 118.137C14.84 117.987 15.39 117.58 15.7294 117.011C15.7294 117.011 15.7294 117.011 15.7294 117.011C16.8203 115.183 17.9616 113.295 19.096 111.426C35.3349 85.1119 51.4581 58.3767 70.9439 34.3979C76.3594 28.1362 81.7615 21.9327 87.7659 16.2835C89.3964 14.8716 90.9267 13.1735 92.998 12.4999C90.8888 13.0984 89.2893 14.7431 87.5998 16.0966C81.3628 21.5314 75.7143 27.5372 70.0522 33.6021C49.5019 57.0074 32.379 83.1202 15.0832 108.884C13.8728 110.718 12.6621 112.559 11.4841 114.369Z" fill="#E1B866"/>
<path d="M11.8887 123.577C7.31656 125.234 4.65421 130.238 0 135.416C1.72466 131.33 2.77691 129.286 4.22168 125.727C4.55689 125.901 4.93764 126.002 5.3418 126.002C6.68225 126.002 7.76842 124.915 7.76855 123.574C7.76855 122.443 6.99496 121.495 5.94824 121.226C6.10058 120.809 6.25956 120.373 6.42285 119.917L11.8887 123.577ZM14.2861 121.009L12.3652 123.846L6.44434 119.837L8.36523 117L14.2861 121.009ZM15.5547 119.168L15 120L9 116L9.55469 115.168L15.5547 119.168Z" fill="#A52A2A"/>
<path d="M55.0231 19.0272C43.7616 29.0795 35.8033 63.4109 34.5001 79.5C34.5001 79.5 31.9688 39.5787 40.9195 31.3782C49.8702 23.1778 55.0231 19.0272 55.0231 19.0272Z" fill="url(#paint0_linear_326_162)"/>
<path d="M40.0232 29.0182C32.196 39.4687 30.696 69.4202 32.0002 83C32.0002 83 23.9955 50.3896 30.1853 41.9087C36.3752 33.4279 40.0232 29.0182 40.0232 29.0182Z" fill="url(#paint1_linear_326_162)"/>
<path d="M29.0209 39.0106C24.188 49.1101 27.0288 74.0643 29.8992 85C29.8992 85 19.1207 59.6682 22.9135 51.5031C26.7063 43.338 29.0209 39.0106 29.0209 39.0106Z" fill="url(#paint2_linear_326_162)"/>
<path d="M11.0115 80.0166C16.0025 77.1054 26.2358 82.2222 29.7623 86.3194C29.861 85.2823 18.7405 76.7066 15.5623 78.0713C12.3842 79.436 11.0115 80.0166 11.0115 80.0166Z" fill="url(#paint3_linear_326_162)"/>
<path d="M63.9271 103.528C64.0269 98.1222 38.9639 98.6674 25.0071 101.304C27.2418 100.169 61.3503 96.4138 62.4016 99.3429C63.4529 102.272 63.9271 103.528 63.9271 103.528Z" fill="url(#paint4_linear_326_162)"/>
<path d="M13.0153 86.3052C16.409 82.6532 25.9593 84.0692 29.7962 86.4317C29.6343 85.5727 18.5509 81.6122 16.2755 83.5449C14.0002 85.4775 13.0153 86.3052 13.0153 86.3052Z" fill="url(#paint5_linear_326_162)"/>
<path d="M67.0005 15.0007C54.1967 23.5692 42.0658 58.105 38.3119 73.9141C38.3119 73.9141 44.1072 30.5699 54.3157 23.5503C64.5242 16.5308 67.0005 15.0007 67.0005 15.0007Z" fill="url(#paint6_linear_326_162)"/>
<path d="M81.0004 9.00086C66.4371 16.0785 49.0348 50.7483 42.9508 66.8987C42.9508 66.8987 54.9271 21.919 66.5641 16.0771C78.2012 10.2351 81.0004 9.00086 81.0004 9.00086Z" fill="url(#paint7_linear_326_162)"/>
<path d="M96.0003 4.00095C80.1717 9.11639 57.6558 42.4502 49.2304 58.2886C49.2304 58.2886 67.6278 13.4155 80.3015 9.13434C92.9752 4.85318 96.0003 4.00095 96.0003 4.00095Z" fill="url(#paint8_linear_326_162)"/>
<path d="M115 0.00107251C97.472 2.49792 67.8729 33.9823 56.1945 49.3708C56.1945 49.3708 83.5373 4.73947 97.605 2.54164C111.673 0.343814 115 0.00107251 115 0.00107251Z" fill="url(#paint9_linear_326_162)"/>
<path d="M80 74.9998C76.6978 84.1225 37.045 96.0384 27.0002 100.432C27.0002 100.432 74.2389 89.7975 77 82.4996C79.7611 75.2018 80 74.9998 80 74.9998Z" fill="url(#paint10_linear_326_162)"/>
<path d="M81.1328 66.6682C78.4214 75.9836 39.6127 90.4135 29.8698 95.4412C29.8698 95.4412 76.3308 81.8044 78.6191 74.3448C80.9073 66.8851 81.1328 66.6682 81.1328 66.6682Z" fill="url(#paint11_linear_326_162)"/>
<path d="M85.0039 58.9996C82.2925 68.315 40.7468 86.4718 31.0039 91.4996C31.0039 91.4996 80.7156 72.9593 83.0039 65.4996C85.2922 58.04 85.0039 58.9996 85.0039 58.9996Z" fill="url(#paint12_linear_326_162)"/>
<path d="M91.5 46.4998C88.7886 55.8151 44.7429 80.472 35 85.4998C35 85.4998 84.7117 64.1761 87 56.7165C89.2883 49.2568 91.5 46.4998 91.5 46.4998Z" fill="url(#paint13_linear_326_162)"/>
<path d="M94.5 37.3706C91.7886 46.686 48.7429 72.972 39 77.9998C39 77.9998 87.7117 55.047 90 47.5873C92.2883 40.1277 94.5 37.3706 94.5 37.3706Z" fill="url(#paint14_linear_326_162)"/>
<path d="M94.7022 13.6566C92.9703 26.9525 66.8361 49.4533 54 58.3364C54 58.3364 91.375 37.523 92.9301 26.8517C94.4851 16.1804 94.7022 13.6566 94.7022 13.6566Z" fill="url(#paint15_linear_326_162)"/>
<path d="M93.5028 30.4143C89.7251 43.2793 60.0638 60.6767 46.0028 67.4564C46.0028 67.4564 87.3077 49.2141 90.5027 38.9143C93.6977 28.6145 93.5028 30.4143 93.5028 30.4143Z" fill="url(#paint16_linear_326_162)"/>
<defs>
<linearGradient id="paint0_linear_326_162" x1="65.6248" y1="31.4836" x2="23.8754" y2="67.0163" gradientUnits="userSpaceOnUse">
<stop stop-color="#A52A2A"/>
<stop offset="1" stop-color="#FF7518"/>
</linearGradient>
<linearGradient id="paint1_linear_326_162" x1="50.6372" y1="37.347" x2="21.3631" y2="74.653" gradientUnits="userSpaceOnUse">
<stop stop-color="#A52A2A"/>
<stop offset="1" stop-color="#FF7518"/>
</linearGradient>
<linearGradient id="paint2_linear_326_162" x1="38.6073" y1="43.8465" x2="20.2919" y2="80.1535" gradientUnits="userSpaceOnUse">
<stop stop-color="#A52A2A"/>
<stop offset="1" stop-color="#FF7518"/>
</linearGradient>
<linearGradient id="paint3_linear_326_162" x1="13.7923" y1="86.145" x2="26.9964" y2="80.1537" gradientUnits="userSpaceOnUse">
<stop stop-color="#A52A2A"/>
<stop offset="1" stop-color="#FF7518"/>
</linearGradient>
<linearGradient id="paint4_linear_326_162" x1="46.3174" y1="108.646" x2="42.6825" y2="96.1393" gradientUnits="userSpaceOnUse">
<stop stop-color="#A52A2A"/>
<stop offset="1" stop-color="#FF7518"/>
</linearGradient>
<linearGradient id="paint5_linear_326_162" x1="16.7184" y1="90.4954" x2="26.0966" y2="82.2076" gradientUnits="userSpaceOnUse">
<stop stop-color="#A52A2A"/>
<stop offset="1" stop-color="#FF7518"/>
</linearGradient>
<linearGradient id="paint6_linear_326_162" x1="76.2078" y1="29.4665" x2="29.1041" y2="59.4477" gradientUnits="userSpaceOnUse">
<stop stop-color="#A52A2A"/>
<stop offset="1" stop-color="#FF7518"/>
</linearGradient>
<linearGradient id="paint7_linear_326_162" x1="88.6586" y1="25.7461" x2="35.2922" y2="50.1526" gradientUnits="userSpaceOnUse">
<stop stop-color="#A52A2A"/>
<stop offset="1" stop-color="#FF7518"/>
</linearGradient>
<linearGradient id="paint8_linear_326_162" x1="101.512" y1="22.5657" x2="43.7188" y2="39.7229" gradientUnits="userSpaceOnUse">
<stop stop-color="#A52A2A"/>
<stop offset="1" stop-color="#FF7518"/>
</linearGradient>
<linearGradient id="paint9_linear_326_162" x1="117.46" y1="20.942" x2="53.7341" y2="28.4288" gradientUnits="userSpaceOnUse">
<stop stop-color="#A52A2A"/>
<stop offset="1" stop-color="#FF7518"/>
</linearGradient>
<linearGradient id="paint10_linear_326_162" x1="73.5523" y1="94.3854" x2="33.4479" y2="81.0465" gradientUnits="userSpaceOnUse">
<stop stop-color="#FF7518"/>
<stop offset="0.341346" stop-color="#E1B866"/>
</linearGradient>
<linearGradient id="paint11_linear_326_162" x1="75.9393" y1="86.4268" x2="35.0633" y2="75.6826" gradientUnits="userSpaceOnUse">
<stop stop-color="#FF7518"/>
<stop offset="0.341346" stop-color="#E1B866"/>
</linearGradient>
<linearGradient id="paint12_linear_326_162" x1="79.2702" y1="80.8178" x2="36.7494" y2="69.6413" gradientUnits="userSpaceOnUse">
<stop stop-color="#FF7518"/>
<stop offset="0.341346" stop-color="#E1B866"/>
</linearGradient>
<linearGradient id="paint13_linear_326_162" x1="84.88" y1="71.6852" x2="41.62" y2="60.3143" gradientUnits="userSpaceOnUse">
<stop stop-color="#FF7518"/>
<stop offset="0.341346" stop-color="#E1B866"/>
</linearGradient>
<linearGradient id="paint14_linear_326_162" x1="87.7121" y1="63.195" x2="45.7879" y2="52.1753" gradientUnits="userSpaceOnUse">
<stop stop-color="#FF7518"/>
<stop offset="0.341346" stop-color="#E1B866"/>
</linearGradient>
<linearGradient id="paint15_linear_326_162" x1="92.2318" y1="37.8249" x2="56.4713" y2="34.1682" gradientUnits="userSpaceOnUse">
<stop stop-color="#FF7518"/>
<stop offset="0.341346" stop-color="#E1B866"/>
</linearGradient>
<linearGradient id="paint16_linear_326_162" x1="87.4022" y1="53.5348" x2="52.1319" y2="44.2282" gradientUnits="userSpaceOnUse">
<stop stop-color="#FF7518"/>
<stop offset="0.341346" stop-color="#E1B866"/>
</linearGradient>
</defs>
</svg>
