<svg width="126" height="156" viewBox="0 0 126 156" fill="none" xmlns="http://www.w3.org/2000/svg">
<path d="M63 49.4885L104.569 102.739H21.4308L63 49.4885Z" fill="#E1B866"/>
<path d="M63 155.489L21.4308 102.239H104.569L63 155.489Z" fill="#145032"/>
<foreignObject x="-4" y="25.4885" width="134" height="125.402"><div xmlns="http://www.w3.org/1999/xhtml" style="backdrop-filter:blur(2px);clip-path:url(#bgblur_0_324_112_clip_path);height:100%;width:100%"></div></foreignObject><g data-figma-bg-blur-radius="4">
<mask id="path-3-inside-1_324_112" fill="white">
<path d="M92.5 29.4885C111.002 29.4885 126 44.487 126 62.9885C126 71.0211 123.171 78.3921 118.458 84.1633L118.485 84.176L116.262 87.0081L70 146.431V116.489H56V146.891L7.94141 85.6399C2.98951 79.8005 0 72.2446 0 63.9885C0 63.8291 0.00363865 63.6699 0.00585938 63.511C0.00319992 63.3371 0 63.163 0 62.9885C0 44.487 14.9985 29.4885 33.5 29.4885C46.2539 29.4885 57.3397 36.6169 62.998 47.1057C68.6569 36.6164 79.7458 29.4885 92.5 29.4885ZM50 98.4885H59V89.4885H50V98.4885ZM67 98.4885H76V89.4885H67V98.4885ZM50 84.4885H59V75.4885H50V84.4885ZM67 84.4885H76V75.4885H67V84.4885Z"/>
</mask>
<path d="M92.5 29.4885C111.002 29.4885 126 44.487 126 62.9885C126 71.0211 123.171 78.3921 118.458 84.1633L118.485 84.176L116.262 87.0081L70 146.431V116.489H56V146.891L7.94141 85.6399C2.98951 79.8005 0 72.2446 0 63.9885C0 63.8291 0.00363865 63.6699 0.00585938 63.511C0.00319992 63.3371 0 63.163 0 62.9885C0 44.487 14.9985 29.4885 33.5 29.4885C46.2539 29.4885 57.3397 36.6169 62.998 47.1057C68.6569 36.6164 79.7458 29.4885 92.5 29.4885ZM50 98.4885H59V89.4885H50V98.4885ZM67 98.4885H76V89.4885H67V98.4885ZM50 84.4885H59V75.4885H50V84.4885ZM67 84.4885H76V75.4885H67V84.4885Z" fill="#4B0082" fill-opacity="0.6"/>
<path d="M118.458 84.1633L117.683 83.5308L116.869 84.5281L118.037 85.0703L118.458 84.1633ZM118.485 84.176L119.272 84.7936L120.052 83.8006L118.906 83.269L118.485 84.176ZM116.262 87.0081L115.475 86.3905L115.473 86.3938L116.262 87.0081ZM70 146.431H69V149.343L70.7891 147.045L70 146.431ZM70 116.489H71V115.489H70V116.489ZM56 116.489V115.489H55V116.489H56ZM56 146.891L55.2133 147.508L57 149.785V146.891H56ZM7.94141 85.6399L8.72814 85.0226L8.7164 85.0076L8.70409 84.9931L7.94141 85.6399ZM0.00585938 63.511L1.00576 63.525L1.00597 63.5103L1.00574 63.4957L0.00585938 63.511ZM62.998 47.1057L62.1179 47.5805L62.998 49.2119L63.8781 47.5805L62.998 47.1057ZM50 98.4885H49V99.4885H50V98.4885ZM59 98.4885V99.4885H60V98.4885H59ZM59 89.4885H60V88.4885H59V89.4885ZM50 89.4885V88.4885H49V89.4885H50ZM67 98.4885H66V99.4885H67V98.4885ZM76 98.4885V99.4885H77V98.4885H76ZM76 89.4885H77V88.4885H76V89.4885ZM67 89.4885V88.4885H66V89.4885H67ZM50 84.4885H49V85.4885H50V84.4885ZM59 84.4885V85.4885H60V84.4885H59ZM59 75.4885H60V74.4885H59V75.4885ZM50 75.4885V74.4885H49V75.4885H50ZM67 84.4885H66V85.4885H67V84.4885ZM76 84.4885V85.4885H77V84.4885H76ZM76 75.4885H77V74.4885H76V75.4885ZM67 75.4885V74.4885H66V75.4885H67ZM92.5 29.4885V30.4885C110.449 30.4885 125 45.0393 125 62.9885H126H127C127 43.9347 111.554 28.4885 92.5 28.4885V29.4885ZM126 62.9885H125C125 70.782 122.257 77.9314 117.683 83.5308L118.458 84.1633L119.233 84.7959C124.086 78.8528 127 71.2601 127 62.9885H126ZM118.458 84.1633L118.037 85.0703L118.064 85.083L118.485 84.176L118.906 83.269L118.879 83.2563L118.458 84.1633ZM118.485 84.176L117.699 83.5585L115.475 86.3905L116.262 87.0081L117.048 87.6256L119.272 84.7936L118.485 84.176ZM116.262 87.0081L115.473 86.3938L69.2109 145.817L70 146.431L70.7891 147.045L117.051 87.6224L116.262 87.0081ZM70 146.431H71V116.489H70H69V146.431H70ZM70 116.489V115.489H56V116.489V117.489H70V116.489ZM56 116.489H55V146.891H56H57V116.489H56ZM56 146.891L56.7867 146.274L8.72814 85.0226L7.94141 85.6399L7.15467 86.2572L55.2133 147.508L56 146.891ZM7.94141 85.6399L8.70409 84.9931C3.89944 79.3274 1 71.9986 1 63.9885H0H-1C-1 72.4906 2.07958 80.2737 7.17872 86.2867L7.94141 85.6399ZM0 63.9885H1C1 63.8383 1.00337 63.6958 1.00576 63.525L0.00585938 63.511L-0.994043 63.497C-0.996097 63.644 -1 63.8198 -1 63.9885H0ZM0.00585938 63.511L1.00574 63.4957C1.00301 63.3173 1 63.1533 1 62.9885H0H-1C-1 63.1727 -0.996614 63.357 -0.994024 63.5263L0.00585938 63.511ZM0 62.9885H1C1 45.0393 15.5507 30.4885 33.5 30.4885V29.4885V28.4885C14.4462 28.4885 -1 43.9347 -1 62.9885H0ZM33.5 29.4885V30.4885C45.8716 30.4885 56.6271 37.4021 62.1179 47.5805L62.998 47.1057L63.8782 46.6309C58.0524 35.8317 46.6362 28.4885 33.5 28.4885V29.4885ZM62.998 47.1057L63.8781 47.5805C69.3695 37.4018 80.1279 30.4885 92.5 30.4885V29.4885V28.4885C79.3636 28.4885 67.9444 35.8311 62.118 46.6309L62.998 47.1057ZM50 98.4885V99.4885H59V98.4885V97.4885H50V98.4885ZM59 98.4885H60V89.4885H59H58V98.4885H59ZM59 89.4885V88.4885H50V89.4885V90.4885H59V89.4885ZM50 89.4885H49V98.4885H50H51V89.4885H50ZM67 98.4885V99.4885H76V98.4885V97.4885H67V98.4885ZM76 98.4885H77V89.4885H76H75V98.4885H76ZM76 89.4885V88.4885H67V89.4885V90.4885H76V89.4885ZM67 89.4885H66V98.4885H67H68V89.4885H67ZM50 84.4885V85.4885H59V84.4885V83.4885H50V84.4885ZM59 84.4885H60V75.4885H59H58V84.4885H59ZM59 75.4885V74.4885H50V75.4885V76.4885H59V75.4885ZM50 75.4885H49V84.4885H50H51V75.4885H50ZM67 84.4885V85.4885H76V84.4885V83.4885H67V84.4885ZM76 84.4885H77V75.4885H76H75V84.4885H76ZM76 75.4885V74.4885H67V75.4885V76.4885H76V75.4885ZM67 75.4885H66V84.4885H67H68V75.4885H67Z" fill="url(#paint0_linear_324_112)" mask="url(#path-3-inside-1_324_112)"/>
</g>
<path d="M3.52273 29.4885V0.397615H7.04545V13.3522H22.5568V0.397615H26.0795V29.4885H22.5568V16.4772H7.04545V29.4885H3.52273ZM57.6776 14.9431C57.6776 18.0113 57.1236 20.6628 56.0156 22.8976C54.9077 25.1325 53.3878 26.8559 51.456 28.0681C49.5241 29.2802 47.3177 29.8863 44.8366 29.8863C42.3556 29.8863 40.1491 29.2802 38.2173 28.0681C36.2855 26.8559 34.7656 25.1325 33.6577 22.8976C32.5497 20.6628 31.9957 18.0113 31.9957 14.9431C31.9957 11.8749 32.5497 9.22337 33.6577 6.98853C34.7656 4.75368 36.2855 3.03019 38.2173 1.81807C40.1491 0.605949 42.3556 -0.000112057 44.8366 -0.000112057C47.3177 -0.000112057 49.5241 0.605949 51.456 1.81807C53.3878 3.03019 54.9077 4.75368 56.0156 6.98853C57.1236 9.22337 57.6776 11.8749 57.6776 14.9431ZM54.2685 14.9431C54.2685 12.4241 53.8471 10.2982 53.0043 8.56523C52.1709 6.83228 51.0393 5.52072 49.6094 4.63057C48.1889 3.74042 46.598 3.29534 44.8366 3.29534C43.0753 3.29534 41.4796 3.74042 40.0497 4.63057C38.6293 5.52072 37.4976 6.83228 36.6548 8.56523C35.8215 10.2982 35.4048 12.4241 35.4048 14.9431C35.4048 17.462 35.8215 19.588 36.6548 21.3209C37.4976 23.0539 38.6293 24.3654 40.0497 25.2556C41.4796 26.1457 43.0753 26.5908 44.8366 26.5908C46.598 26.5908 48.1889 26.1457 49.6094 25.2556C51.0393 24.3654 52.1709 23.0539 53.0043 21.3209C53.8471 19.588 54.2685 17.462 54.2685 14.9431ZM63.6009 0.397615H67.8054L77.6918 24.5453H78.0327L87.919 0.397615H92.1236V29.4885H88.8281V7.38625H88.544L79.4531 29.4885H76.2713L67.1804 7.38625H66.8963V29.4885H63.6009V0.397615ZM99.1868 29.4885V0.397615H116.744V3.52262H102.71V13.3522H115.835V16.4772H102.71V26.3635H116.971V29.4885H99.1868Z" fill="#E1B866"/>
<defs>
<clipPath id="bgblur_0_324_112_clip_path" transform="translate(4 -25.4885)"><path d="M92.5 29.4885C111.002 29.4885 126 44.487 126 62.9885C126 71.0211 123.171 78.3921 118.458 84.1633L118.485 84.176L116.262 87.0081L70 146.431V116.489H56V146.891L7.94141 85.6399C2.98951 79.8005 0 72.2446 0 63.9885C0 63.8291 0.00363865 63.6699 0.00585938 63.511C0.00319992 63.3371 0 63.163 0 62.9885C0 44.487 14.9985 29.4885 33.5 29.4885C46.2539 29.4885 57.3397 36.6169 62.998 47.1057C68.6569 36.6164 79.7458 29.4885 92.5 29.4885ZM50 98.4885H59V89.4885H50V98.4885ZM67 98.4885H76V89.4885H67V98.4885ZM50 84.4885H59V75.4885H50V84.4885ZM67 84.4885H76V75.4885H67V84.4885Z"/>
</clipPath><linearGradient id="paint0_linear_324_112" x1="91.2414" y1="90.1238" x2="0" y2="90.1238" gradientUnits="userSpaceOnUse">
<stop stop-color="#E1B866"/>
<stop offset="1" stop-color="#FF7518"/>
</linearGradient>
</defs>
</svg>
