<svg width="225" height="227" viewBox="0 0 225 227" fill="none" xmlns="http://www.w3.org/2000/svg">
<path d="M43.317 0.92903C43.317 0.92903 57.7559 -5.07276 87.0851 13.4333C116.414 31.9393 104.683 219 104.683 219L52.3413 216.499C34.7981 184.176 18.8002 167.937 21.6585 131.222C33.8782 73.0272 21.785 62.3117 0 43.4431C11.9019 16.3364 26.8549 7.78098 43.317 0.92903Z" fill="url(#paint0_linear_329_261)"/>
<path d="M180.789 153L185.111 158.038C190.413 164.22 189.701 173.529 183.519 178.832V178.832C180.428 181.483 175.774 181.127 173.122 178.036L170.961 175.517C167.117 171.035 167.634 164.285 172.116 160.44L180.789 153Z" fill="#A52A2A"/>
<path d="M134.839 52.21C148.743 55.7541 157.877 68.4787 157.417 82.2529C171.891 84.3889 183 96.861 183 111.929V136.929H156C151.493 136.929 147.219 135.933 143.384 134.152C144.352 137.213 144.803 140.333 144.777 143.41C153.313 148.699 159 158.149 159 168.929V171.946L181.019 171.99C183.781 171.996 186.015 174.239 186.01 177C186.004 179.761 183.761 181.995 181 181.99L155 181.938C154.901 181.938 154.802 181.935 154.704 181.929H143C134.581 181.929 126.974 178.459 121.525 172.874L116.762 174.879C118.21 178.959 119 183.352 119 187.929C119 199.443 114.009 209.79 106.074 216.929H141C143.761 216.929 146 219.167 146 221.929C146 224.69 143.761 226.929 141 226.929H73.9999C72.8368 226.929 71.7673 226.53 70.9179 225.864C59.7592 223.202 50.4613 215.746 45.3232 205.792L44.9999 205.929L30.0194 170.322C23.5943 155.05 30.7661 137.461 46.038 131.036L73.6269 119.428C75.4597 118.096 77.4739 116.953 79.6523 116.036L126 96.5361V81.9287H126.422C122.704 75.4119 121.411 67.5025 123.41 59.6582L125.89 49.9287L134.839 52.21Z" fill="url(#paint1_linear_329_261)"/>
<path d="M209.289 222.845L196.861 210.107L206.053 201.14C208.03 199.211 211.195 199.25 213.124 201.227L222.06 210.386L209.289 222.845Z" fill="#E1B866"/>
<path d="M195.002 209.728C195.002 201.688 201.52 195.17 209.56 195.17C217.6 195.17 224.117 201.688 224.117 209.728H195.002Z" fill="#A52A2A"/>
<path d="M209.882 199.766L210.923 198.887L211.568 199.65L210.688 200.394L211.719 201.195L211.104 201.984L209.908 201.054L208.356 202.365L209.241 203.054L208.627 203.843L207.576 203.025L206.175 204.211L205.528 203.447L206.769 202.397L205.317 201.269L203.766 202.58L206.763 204.912L206.148 205.701L205.061 204.854L205.374 205.226L203.9 206.471L204.285 206.771L203.671 207.56L203.119 207.131L201.567 208.442L201.807 208.629L201.193 209.418L200.787 209.103L199.979 209.786L199.334 209.022L199.98 208.475L198.47 207.3L196.263 209.166L195.617 208.402L197.663 206.672L195.617 205.081L196.231 204.292L198.443 206.013L199.996 204.7L198.096 203.223L198.709 202.434L200.776 204.041L201.012 203.843L201.657 204.606L201.583 204.669L203.094 205.844L204.646 204.531L202.985 203.24L201.838 204.211L201.192 203.447L202.179 202.612L200.573 201.364L201.188 200.575L202.959 201.953L204.511 200.642L203.051 199.506L203.665 198.717L205.291 199.981L206.587 198.887L207.232 199.65L206.098 200.608L207.55 201.737L209.102 200.426L205.529 197.647L206.144 196.858L209.882 199.766ZM221.711 204.768L222.073 204.462L222.72 205.226L222.518 205.396L223.488 206.15L222.875 206.94L221.737 206.056L220.482 207.116L221.63 208.009L221.017 208.799L219.702 207.776L217.325 209.786L216.68 209.022L218.895 207.148L217.766 206.271L215.79 207.94L216.675 208.629L216.061 209.418L215.01 208.601L213.608 209.786L212.963 209.022L214.203 207.973L212.633 206.752L210.511 208.547L209.865 207.783L211.826 206.124L210.485 205.081L211.099 204.292L212.606 205.465L215.26 203.223L215.855 203.928L216.055 203.673L217.739 204.982L218.356 204.462L219.002 205.226L218.546 205.61L219.676 206.488L220.93 205.428L217.299 202.604L217.913 201.814L221.711 204.768ZM199.25 206.64L200.761 207.815L202.313 206.503L200.803 205.328L199.25 206.64ZM213.413 206.092L214.983 207.313L216.959 205.643L215.44 204.462L215.628 204.22L213.413 206.092ZM210.036 196.101L211.104 195.17L211.762 195.924L210.841 196.727L214.196 199.337L213.583 200.126L210.072 197.396L208.664 198.625L208.007 197.872L209.269 196.771L208.007 195.789L208.621 195L210.036 196.101Z" fill="url(#paint2_linear_329_261)"/>
<defs>
<linearGradient id="paint0_linear_329_261" x1="53.5" y1="0" x2="53.5" y2="219" gradientUnits="userSpaceOnUse">
<stop stop-color="#145032"/>
<stop offset="1" stop-color="#4B0082"/>
</linearGradient>
<linearGradient id="paint1_linear_329_261" x1="154.5" y1="81.9289" x2="154.5" y2="136.929" gradientUnits="userSpaceOnUse">
<stop stop-color="#145032"/>
<stop offset="1" stop-color="#4B0082"/>
</linearGradient>
<linearGradient id="paint2_linear_329_261" x1="209.553" y1="195" x2="209.553" y2="209.786" gradientUnits="userSpaceOnUse">
<stop stop-color="#D15C1D"/>
<stop offset="1" stop-color="#F1A52D"/>
</linearGradient>
</defs>
</svg>
